<svg xmlns="http://www.w3.org/2000/svg" width="310" height="217" viewBox="0 0 310 217">
  <g fill="#333">
    <path d="M284.166667,0 L25.8333333,0 C11.5733333,0.0167916667 0.0167916667,11.5733333 0,25.8333333 L0,191.166667 C0.0167916667,205.426667 11.5733333,216.983208 25.8333333,217.000191 L284.166667,217.000191 C285.616563,217.005813 287.063875,216.879229 288.491167,216.622833 C300.922813,214.541958 310.023896,203.771396 310.000047,191.166667 L310.000047,25.8333333 C309.983208,11.5726875 298.426667,0.0167916667 284.166667,0 Z M25.8333333,206.666667 C17.8023958,206.665375 11.101875,200.530604 10.3953333,192.530667 L113.408333,125.178 L218.167667,206.666667 L25.8333333,206.666667 Z M299.666676,191.166667 C299.675063,198.750042 294.18225,205.220646 286.698333,206.4445 C285.862625,206.594979 285.015292,206.66925 284.166667,206.666732 L234.9955,206.666732 L166.542333,153.393167 L227.757,104.444167 L299.666676,147.591 L299.666676,191.166667 Z M299.666667,135.542333 L229.994167,93.7388333 C228.141917,92.6247708 225.792375,92.7817083 224.104167,94.1315 L158.141333,146.883167 L116.833833,114.756833 C115.093313,113.404458 112.686938,113.304354 110.8405,114.508833 L10.3333333,180.223667 L10.3333333,25.8333333 C10.3333333,17.2728125 17.2728125,10.3333333 25.8333333,10.3333333 L284.166667,10.3333333 C292.727188,10.3333333 299.666667,17.2728125 299.666667,25.8333333 L299.666667,135.542333 Z"/>
    <path d="M155,31 C137.878958,31 124,44.8789583 124,62 C124.016792,79.1139375 137.886063,92.9832083 155,93 C172.121042,93 186,79.1210417 186,62 C186,44.8789583 172.121042,31 155,31 Z M155,82.6666667 C143.586187,82.6666667 134.333333,73.4138125 134.333333,62 C134.333333,50.5861875 143.586187,41.3333333 155,41.3333333 C166.413813,41.3333333 175.666667,50.5861875 175.666667,62 C175.666667,73.4138125 166.413813,82.6666667 155,82.6666667 Z"/>
  </g>
</svg>
