<svg xmlns="http://www.w3.org/2000/svg" viewBox="0 0 38 36">
  <path [attr.fill]="fillColor" d="M25.0683332 5.3562906C30.4347915 8.1927364 37.9928286 13.9826838 38 17.9755479c-.007991 4.248973-7.7367073 9.8745315-12.9316668 12.6200429C20.3518082 33.0885285 13.1720111 36 8.4565106 36c-1.2498719 0-2.2698494-.2048479-3.0322713-.6076695C1.697572 33.4218236 0 24.9833876 0 17.9755479c0-3.5213015.4743366-7.3057824 1.299457-10.3818393.9945703-3.7006171 2.420039-6.1316879 4.1247823-7.0331757C6.1284704.1891357 7.0929208 0 8.2903391 0c4.5640816 0 11.8967319 2.776543 16.7779941 5.3562906zm-.6132569 24.3586311c6.4311034-3.3987463 12.2739474-8.450613 12.2798894-11.6307632-.0053273-3.0336339-5.9487758-8.28426-12.2798894-11.631156C17.1496773 2.5923174 8.8359799.3160117 6.0971212 1.7640878c-3.120377 1.6499779-4.831882 9.8888689-4.8327016 16.3200707.0008196 6.4814809 1.6131544 14.6182425 4.8327016 16.3210527 2.9197828 1.5409745 10.8710173-.7335635 18.3579551-4.6902895zm3.5764662-13.795195c1.1461674 0 1.7516472.6327783 1.7516472 1.8311147v3.2721145c0 .0177414-.0131225.0301605-.031986.0301605h-1.4000055c-.0176334 0-.031576-.0139961-.031576-.0301605v-3.0253113c0-.6727951-.2378451-.9594181-.7945257-.9594181-.1982726 0-.4393983.0707687-.6772434.201464-.23682.1318781-.4242255.2422693-.4894279.280512-.0172232.0102506-.0381372.0411996-.0381372.0664319v3.4361244c0 .0161644-.015583.0301604-.0332163.0301604h-1.402876c-.0180435 0-.0332163-.013996-.0332163-.0301604v-4.8668737c.0003783-.0384964.0166769-.0752654.0452978-.1021902.028621-.0269248.0672108-.0417915.1072511-.0413184h1.2843636c.0181073-.000003.0328809.0139376.0332163.0313432v.3820326c.0001079.0112229.0048631.0219418.0132134.0297849.0083504.0078432.0196073.0121638.03128.012006.0096368 0 .0207089-.0057167.0239895-.0065052l.0428532-.0317375c.1570598-.1165021.3965452-.2470003.559141-.3061385.353487-.1291183.7311687-.2034353 1.0399572-.2034353zm4.0431618-1.6438438c.1903122.2037306.2954832.4679583.295256.7417897l.0004101 6.0050862c-.0007558.0166518-.0148573.0298638-.0321911.0301604h-1.3977501c-.0172233 0-.0307558-.013996-.0307558-.0301604l-.0016404-7.4523942c0-.0266121.0071764-.0348915.0444935-.0348915.0885768 0 .8695699.4725139 1.1221778.7404098zm-19.4001641 1.6227512c1.5121617 0 2.7358338.8109813 2.7360388 2.632831 0 1.7814386-1.2238771 2.6324368-2.7360388 2.6324368-1.5176979 0-2.7391145-.8509982-2.7391145-2.6324368 0-1.8232296 1.2214166-2.632831 2.7391145-2.632831zm0 4.0129186c.675193 0 1.1828693-.4953807 1.1830743-1.3794962 0-.9621779-.5078813-1.3828474-1.1830743-1.3828474-.6776536 0-1.18615.4208666-1.18615 1.3828474 0 .8841155.5084964 1.3794962 1.18615 1.3794962zm11.2322351-.0451421c.0282979-.000002.0513329.0218805.0516698.0490846v.9168387c.0001648.0586666-.0330254.1127312-.0865264.1409459-.2091397.10842-.5616015.1817513-1.0805549.1817513-.9075021 0-1.7508271-.4390023-1.7508271-1.8431394v-3.2362374c.000673-.278051.1075717-.546175.300382-.7534202.2450215-.258828 1.0344212-.7461264 1.1361205-.7461264.0440833 0 .0625368.0118276.0625368.0520415v1.317204c-.0001696.0129793.0051469.0254691.0147322.0346103.0095854.0091412.0226191.0141511.0361175.013883h1.1529336c.0913914.0003236.1654269.0714144.1658765.1592788l.0008201.957644h-.0008201c.000339.0130809-.0049026.0257257-.014507.0349968-.0096044.009271-.0227356.0143612-.0363427.0140879h-1.2679604c-.0289105 0-.0508497.0222754-.0508497.0488875v1.8604866c0 .714389.2806982.9272864.7500323.9272864.2206218 0 .5663174-.1301039.617167-.1301039zM6.3886631 15.9938465c1.9611969 0 2.9767545 1.1322987 2.9769595 2.5961654 0 1.4658379-1.1369406 2.481043-3.0083305 2.481043h-.5835406c-.0293206 0-.0512598.021684-.0512598.0498732v2.374003c0 .0408053-.0176333.0522387-.0617167.0522387-.1025194 0-.891509-.4863128-1.1381708-.7461265-.1926224-.2075117-.2994851-.4756856-.300382-.7538144v-5.891738c.0002161-.0432177.0183375-.0845708.0503539-.1149078.0320164-.0303371.0752879-.0471567.1202385-.0467366h1.9958485zm0 3.7584274c1.3184 0 1.4961687-.8809615 1.4959637-1.2342134 0-.6231192-.4197146-1.2070099-1.5261044-1.2070099h-.5857961c-.0285004 0-.0504396.0224725-.0504396.0490846v2.343054c-.0001092.0129476.0051502.0254038.0146154.0346147.0094652.009211.0223566.014418.0358242.01447h.6159368zm13.2430515-1.4423798c.4268909.2702614.6360306.6607704.6360306 1.1985335 0 1.0694151-.7988315 1.6560656-2.3579472 1.6560656-.890894 0-1.8353031-.3004218-1.8424794-.3041672-.0690155-.0226371-.1153599-.0850317-.1152319-.1551392v-.9968723c.0001031-.0160327.0069281-.0313477.0189306-.0424789.0120024-.0111311.0281674-.0171373.0448365-.0166592.0074658.0003469.0148472.0016733.0219392.0039425.3335982.1019148 1.4116927.3599543 1.9864167.3599543.3391343 0 .5158778-.0488875.6311097-.1586874.0768896-.0747112.1146167-.1541535.1146167-.2521257 0-.3256541-.4260708-.4165298-.8373788-.5028715-.0529-.0106449-.0311659-.0059138-.1697722-.0370599-.9007358-.2048152-1.8537565-.4169241-1.8537565-1.5350296 0-.4953807.2146757-.9075737.6210627-1.1926196.4012611-.2858345.9831615-.4356511 1.6811139-.4356511.6282391 0 1.3706849.1992956 1.6202172.2753867.0723949.0217413.1220377.0857754.1230234.1586874v.994901c-.0024605.0461278-.0516698.0662347-.0873466.0536186-.7141504-.2570539-1.3671993-.3479295-1.8381736-.3479295-.3715305 0-.6130663.1567161-.6130663.3970142 0 .2783436.3524619.3538433.7990366.4488586.0547453.0122219.2979215.0644606.3631238.079048.3657894.0760911.7436761.1557305 1.0536949.3512807zm-7.0457512-8.8770325c-.2133861-.1621892-.4056025-.3485772-.5724686-.5551102-.0168132-.0242466-.0574109-.07136-.0024605-.1304982.1753888-.2176052.3799464-.4119497.6083504-.577977.0260399-.0149816.0397775-.0183328.0537202-.0183328.0155829 0 .0303457.0033512.0559756.0183328.2281057.1655574.4319108.3599734.6058899.577977.0496194.0514502.02645.0950153-.0008201.1304982-.1673007.206362-.3596977.3927249-.5730837.5551102-.0241425.0201158-.0546155.0318485-.0865264.0333145h-.0016404c-.0276802 0-.0553605-.0110391-.0869364-.0333145zm-2.4020306 4.5157901c.001985-.1247727.1068312-.2253986.2366149-.2270905h4.5104454c.1301037.0012683.23544.1020153.237435.2270905v.5458453c0 .1415373-.0537202.2012669-.179409.2012669h-4.6273176c-.1240485 0-.1777687-.0597296-.1777687-.2012669v-.5458453zm2.172182-.782595c-.1113361 0-.1193327-.1184734-.1197427-.1232045-.0010252-.0236552-.0336264-2.5620623-.0387524-2.9070349 0-.0256266.0075865-.0831877.0453136-.1186706.0209455-.0196104.0493111-.0301485.0785299-.0291748.0512597-.0033512.1886358-.0086736.3508215-.0086736.1178229-.0003697.2356324.0025227.353282.0086736.0292268-.0007635.0575891.009577.07894.0287805.0360868.0358772.0449035.0934383.0449035.1190649-.005536.3449726-.0391624 2.8833797-.0391624 2.9070349 0 .001577-.0075864.1232045-.1189226.1232045h-.6352104zm3.0811193-2.7097106c.5078813.1827369.4873774.5352004.3877285.8918035-.0604865.2170371-.3579979 1.0144166-.5361767 1.4912673-.0375221.1005349-.0697132.185891-.0916523.2440435-.0215291.0559842-.0668427.0822021-.1449625.0822021h-.6138865c-.047774 0-.0805802-.0122219-.0978035-.0344973-.0186585-.0250351-.021119-.0656434-.0043058-.1190648.1507036-.4474788.6561244-1.806868.6612504-1.8204698.0323961-.0869331-.0020504-.2095462-.0973935-.2434521l-.2538381-.0802308c-.0192737-.0055195-.0348566-.0074908-.0508497-.0074908-.0490043 0-.0772996.0236553-.089807.0463249-.1051849.2249221-.1630059.3806526-.2446114.6467744-.0139426.044945-.0516698.0676146-.1176923.0676146h-.4966042c-.0373171 0-.0629469-.0098564-.0764795-.0275978-.015993-.0183329-.0180434-.0447479-.0075864-.0814136.1277392-.4419592.2593742-.7959996.4424739-1.185523.031576-.0686003.1101059-.1821455.2782377-.1821455.0331022.0006355.0660341.0047336.0982137.0122218l.0041008.0005914c.1677218.0382427.3596382.0808222.5605763.140946.1570597.044945.3225261.0989578.4910681.158096zm-5.2893881 2.6273115c-.0219392-.0581526-.052695-.1435087-.0920625-.2438464-.1781788-.4770479-.4761003-1.2740332-.5357666-1.4914645-.0990338-.3566031-.1197427-.7090665.3891638-.8916063.1679269-.0593353.3331882-.1131511.4906581-.1582932.1997078-.0599267.3908041-.1025061.5613964-.1409459l.0038958-.0005914c.0332163-.007688.0662275-.0122219.0969834-.0122219.1693621 0 .2474819.1133481.279468.1823427.1808443.3893262.3126843.7437609.4404235 1.1853259.0108671.0364685.0096368.0632778-.0055361.0816106-.0135325.0177415-.0395725.0274007-.0772996.0274007h-.4974243c-.0652024 0-.1025195-.0226696-.1168722-.0674175-.0799652-.2661217-.1408617-.4232321-.2450215-.6469715-.0110721-.0226696-.0395725-.0463249-.090012-.0463249-.0166926.0002074-.0332667.0027303-.0492094.0074908l-.2550684.0800337c-.094933.0343001-.1297896.156519-.0978035.2436492.0061512.0136018.5111619 1.372991.6604302 1.8204698.0176334.0534215.0164032.0940297-.0028705.1190648-.0168132.0224725-.0500295.0346944-.0965733.0346944h-.6138864c-.07894 0-.1256889-.0266121-.1470129-.0823991z"/>
</svg>
