<svg xmlns="http://www.w3.org/2000/svg" viewBox="0 0 21 24" enable-background="new 0 0 21 24" xml:space="preserve">
  <path id="horse-behavior-trainer" [attr.fill]="fillColor" d="M1.5937598 10.2878496C.9002481 10.542815 0 11.119812 0 11.119812c.9561596-3.4263397 6.2165222-6.3378935 6.2165222-6.3378935-.5842373-.2112873-2.2337611.2047527-2.2337611.2047527 4.3056877-4.05148884 9.5660503-2.5448868 9.5660503-2.5448868C13.7099035 1.56033144 16.3081634 0 16.3081634 0c-.2627955.25775601-.37118 1.6619817-.37118 1.6619817.262053-.46613904 1.1135399-.93445629 1.1135399-.93445629-.4765951 1.08983597 0 3.42633969 0 3.42633969 1.3815319 1.347592 2.9226711 6.0264081 2.9226711 6.0264081l.5842373.8299018c.7468141 1.0390108.4728833 2.6784842-.259826 3.0691116-2.7645484 1.4572291-3.031798-1.1965687-3.031798-1.1965687-2.2834992-.2570299-3.9827611-2.7525437-3.9827611-2.7525437-1.383759.6977564-1.7994805 1.9698367-1.717821 3.3116201-.550831-.0392079-2.3592199-.0370297-2.0786078-1.1370307.7304822.5997365 1.0756796-.0500991 1.0393039-.5264031-.0363756-.4763041-.6562462-1.486272-.8165959-1.4201993-.1603498.0660726-.4424466.6316837-1.0251991.109637.8819236.0834985.6800017-1.1864037.4023591-1.3359748-.2776426-.1495711-1.3414445-.6128058-1.6524933-.9032351s-.3333196-1.2234335-.9650679-1.0165026c-.6317483.2069309-.1655463 1.5225757-.3533633 1.9603978-.137756.3211242-1.0906063 1.1640883-1.5782241 1.7668349l.0021939.0011535c-.1700004.2127395-.2798697.3935317-.2731885.5082513.026725.4465351.7431023.3681192.7297399.9867336 0 .1050981-.0776419.1988304-.1692099.2935776-.0389148.0410616-.0810929.082192-.1213597.1243883-.0897785.0958769-.1665175.1978536-.170436.3175463-.0096507.2947857.4840187.5126077.4840187.5126077s-.0106915.0029747-.0283474.0097284c.0086795.0041182.0135002.0062452.0135002.0062452s-.1243001.0343715-.2251466.1352282c-.0785385.0862117-.1373565.2159983-.1007494.4056964.084629.4385483.6272942.3056769.8017487.3993403.0801749.0435644-.8329278 1.0252155-.1529261 1.7701666.6183858.7093736 3.7036338-.0406601 4.2975217.1836966 1.115767.4254789 2.0400052 1.8979555 1.4253311 2.5942597-.0152109.017231-.0308659.0343979-.0469422.0515218-.4613.5197861-1.6250798 1.772053-2.4601257 3.1109789-.221641.6779527-.140666 1.0562343 1.7869788 1.2491205 0 .3390762-4.0829797 1.4405293-7.2498873-2.51657C.0126605 17.248985.6010093 12.8834982 1.5937598 10.2878496zM15.9225863 7c-.159603.7203796.1097544 1.2203796.8080723 1.5.3880321-.5726446.1186746-1.0726446-.8080723-1.5z"/>
</svg>
