<svg xmlns="http://www.w3.org/2000/svg" width="497" height="87" viewBox="0 0 497 87">
  <path [attr.fill]="fillColor"
        d="M79,388 L79,304 L108.545455,304 C126.045455,304 140.022727,308.629032 140.022727,324.774194 C140.022727,332.225806 135.818182,340.354839 129,342.951613 L129,343.403226 C137.522727,345.66129 144,351.983871 144,363.16129 C144,380.322581 129.340909,388 110.931818,388 L79,388 Z M100,337 L108.445652,337 C117.119565,337 121,333.264151 121,327.490566 C121,321.490566 117.005435,319 108.445652,319 L100,319 L100,337 Z M100,372 L110.159817,372 C119.977169,372 125,368.555556 125,361.444444 C125,354.666667 120.091324,352 110.159817,352 L100,352 L100,372 Z M205.226667,389 C182.673333,389 171,376.328496 171,348.182058 L171,304 L191.173333,304 L191.173333,350.312665 C191.173333,366.124011 195.933333,371.730871 205.226667,371.730871 C214.406667,371.730871 219.506667,366.124011 219.506667,350.312665 L219.506667,304 L239,304 L239,348.182058 C239,376.328496 227.666667,389 205.226667,389 Z M291,319 L291,342 L300.142857,342 C309.857143,342 315,337.745 315,329.695 C315,321.645 309.857143,319 300.142857,319 L291,319 Z M339,388 L316.408638,388 L300.933555,358.419355 L291.219269,358.419355 L291.219269,388 L271,388 L271,304 L301.837209,304 C319.797342,304 334.707641,310.096774 334.707641,330.419355 C334.707641,342.725806 328.946844,350.629032 320.249169,354.693548 L339,388 Z M401.863857,389 C378.379254,389 360,374.349741 360,345.950777 C360,318.002591 378.946515,302 401.523501,302 C413.889789,302 422.73906,307.183938 428.525122,312.931347 L417.747164,325.778497 C413.662885,322.059585 409.23825,319.242228 402.204214,319.242228 C389.724473,319.242228 380.76175,328.933938 380.76175,345.274611 C380.76175,361.953368 388.249595,371.645078 403.905997,371.645078 C406.969206,371.645078 410.145867,370.856218 411.961102,369.503886 L411.961102,355.98057 L398.573744,355.98057 L398.573744,339.527202 L430,339.527202 L430,378.744819 C424.100486,384.379534 413.662885,389 401.863857,389 Z M480,319 L480,342 L489.142857,342 C498.857143,342 504,337.745 504,329.695 C504,321.645 498.857143,319 489.142857,319 L480,319 Z M528,388 L505.408638,388 L489.933555,358.419355 L480.219269,358.419355 L480.219269,388 L460,388 L460,304 L490.837209,304 C508.797342,304 523.707641,310.096774 523.707641,330.419355 C523.707641,342.725806 517.946844,350.629032 509.249169,354.693548 L528,388 Z M564,389 C556.981132,389 552,383.457014 552,376.443439 C552,369.542986 556.981132,364 564,364 C570.90566,364 576,369.542986 576,376.443439 C576,383.457014 570.90566,389 564,389 Z"
        transform="translate(-79 -302)"/>
</svg>
