<svg xmlns="http://www.w3.org/2000/svg" width="415" height="313" viewBox="0 0 415 313">
  <g [attr.fill]="fillColor">
    <path d="M68.68,223 C56.27,283.65 0.68,312.19 0.68,312.19 C121.52,202.37 13.1,104.46 13.1,104.46 C56.72,125.15 70.81,180.96 70.81,180.96 L73,180.96 C73,180.96 87.06,125.15 130.69,104.46 C130.69,104.46 22.27,202.37 143.1,312.19 C143.1,312.19 87.47,283.65 75.1,223 L68.68,223 Z"/>
    <path d="M88.4000062,117 C88.4000062,123.261985 84.627335,128.907187 78.841628,131.302609 C73.05592,133.698032 66.396912,132.371795 61.970451,127.942472 C57.54399,123.51315 56.222056,116.853286 58.621217,111.069128 C61.020378,105.28497 66.668016,101.515955 72.93,101.519994 C77.034632,101.519994 80.971004,103.151242 83.872479,106.054593 C86.773954,108.957944 88.402653,112.895369 88.4000062,117 L88.4000062,117 Z M340.27,223 C327.88,283.65 272.27,312.19 272.27,312.19 C393,202.37 284.65,104.46 284.65,104.46 C328.28,125.15 342.34,180.96 342.34,180.96 L344.6,180.96 C344.6,180.96 358.67,125.15 402.29,104.46 C402.29,104.46 293.88,202.37 414.72,312.19 C414.72,312.19 359.06,283.65 346.67,223 L340.27,223 Z"/>
    <path d="M360,117 C360,123.261985 356.227335,128.907187 350.441628,131.302609 C344.65592,133.698032 337.996912,132.371795 333.570451,127.942472 C329.14399,123.51315 327.822056,116.853286 330.221217,111.069128 C332.620378,105.28497 338.268016,101.515955 344.53,101.519994 C353.075462,101.52552 360,108.454536 360,117 L360,117 Z M39.2800078,98.86 C39.268958,106.085492 33.405516,111.935511 26.180018,111.93 C18.95452,111.924474 13.100015,106.065505 13.100015,98.8400051 C13.100015,91.6145051 18.954502,85.7555283 26.18,85.75 C29.656069,85.75 32.989622,87.1315462 35.446636,89.590436 C37.90365,92.0493258 39.282653,95.3839317 39.2800078,98.86 L39.2800078,98.86 Z M91.5900341,45.51 C91.585891,50.3923494 88.638468,54.7905365 84.124269,56.6504712 C79.610069,58.5104058 74.419822,57.4650915 70.977533,54.0027224 C67.535244,50.5403534 66.520135,45.3441136 68.406294,40.8408086 C70.292453,36.3375035 74.707709,33.4157114 79.59,33.4397013 C86.233308,33.4675566 91.601083,38.8666438 91.5900341,45.51 Z M170.34,14.12 C170.34,20.1951322 165.415132,25.12 159.34,25.12 C153.264868,25.12 148.34,20.1951322 148.34,14.12 C148.34,8.04486775 153.264868,3.12 159.34,3.12 C165.415132,3.12 170.34,8.04486775 170.34,14.12 L170.34,14.12 Z M249.540312,9.93 C249.570248,15.3897322 245.215739,19.8645365 239.757209,19.9830451 C234.29868,20.1015537 229.754063,15.8199557 229.547325,10.3640553 C229.340587,4.90815484 233.548155,0.29491385 239,0 L240.11,0 C245.366396,0.321168605 249.472939,4.66387064 249.5,9.93 L249.540312,9.93 Z M320.690012,28.76 C320.69552,33.6863754 316.706379,37.684467 311.780004,37.6900002 C306.853628,37.6955106 302.855535,33.7063717 302.849999,28.7799963 C302.844487,23.8536208 306.833625,19.8555259 311.76,19.8498993 C314.127354,19.8420186 316.400339,20.7775437 318.076197,22.4496478 C319.752054,24.1217519 320.692673,26.3926338 320.690012,28.76 Z M370.890014,65.38 C370.884479,69.1452753 367.828621,72.193676 364.063343,72.1900034 C360.298066,72.1863175 357.248171,69.1319505 357.250006,65.3666716 C357.251846,61.6013926 360.304721,58.55 364.07,58.55 C365.88051,58.55 367.616721,59.2699043 368.896007,60.551066 C370.175293,61.8322277 370.892655,63.5694915 370.890014,65.38 L370.890014,65.38 Z M404.380014,105.13 C404.384046,107.893384 402.722538,110.386917 400.170664,111.447223 C397.618791,112.507528 394.679448,111.925653 392.724007,109.973076 C390.768567,108.020499 390.182386,105.082011 391.238952,102.528587 C392.295517,99.9751631 394.786613,98.3099854 397.55,98.3099854 C399.360508,98.3073453 401.097772,99.0247068 402.378934,100.303993 C403.660096,101.583279 404.380014,103.31949 404.380014,105.13 L404.380014,105.13 Z M311.000026,94.13 C311.000026,100.251333 307.311521,105.769541 301.655371,108.110201 C295.999222,110.45086 289.489973,109.152732 285.164401,104.821434 C280.838829,100.490137 279.549312,93.9791763 281.897451,88.326128 C284.245591,82.6730798 289.768673,78.9919084 295.89,78.9999734 C299.900889,78.9999734 303.74721,80.5946835 306.581461,83.4326853 C309.415711,86.270687 311.005309,90.1191147 311.000026,94.13 L311.000026,94.13 Z M268.12,72.7 C268.12,79.353729 262.727059,84.7481563 256.073331,84.7499964 C249.419602,84.7518345 244.023682,79.3603891 244.019998,72.7066611 C244.016321,66.0529332 249.406273,60.6555218 256.06,60.65 C262.71437,60.655504 268.108976,66.0456368 268.12,72.7 L268.12,72.7 Z M212.25,67.59 C212.25,73.1128475 207.772847,77.59 202.25,77.59 C196.727153,77.59 192.25,73.1128475 192.25,67.59 C192.25,62.0671525 196.727153,57.59 202.25,57.59 C207.772847,57.59 212.25,62.0671525 212.25,67.59 L212.25,67.59 Z M168.65,75.62 C168.65,80.038278 165.068278,83.62 160.65,83.62 C156.231722,83.62 152.65,80.038278 152.65,75.62 C152.65,71.201722 156.231722,67.62 160.65,67.62 C165.068278,67.62 168.65,71.201722 168.65,75.62 Z M134.47,98.21 C134.47,102.075993 131.335993,105.21 127.47,105.21 C123.604007,105.21 120.47,102.075993 120.47,98.21 C120.47,94.3440068 123.604007,91.21 127.47,91.21 C131.335993,91.21 134.47,94.3440068 134.47,98.21 L134.47,98.21 Z M353.46,157.62 C354.08,156.31 354.73,154.98 355.46,153.62 C347.99,153.15 339.84,152.86 331.12,152.81 C331.87,154.22 332.57,155.63 333.2,156.99 C340.4,157.05 347.2,157.26 353.5,157.63 L353.46,157.62 Z M320.1,157 C319.55,155.6 318.95,154.22 318.34,152.86 C284.26,153.42 243.09,156.95 199.51,163.49 C160,169.43 120.41,177.7 87.12,187 C86.93,188.41 86.75,189.81 86.6,191.24 C117.35,182.52 155.84,174.19 200.12,167.56 C243.89,161 285.75,157.48 320.12,156.98 L320.1,157 Z M408.17,171.93 C407.75,169.11 406.03,166.57 403.04,164.38 C396.83,159.78 384.57,156.55 367.82,154.69 C367.26,155.98 366.73,157.31 366.18,158.69 C382.71,160.4 394.72,163.42 400.6,167.76 C402.66,169.29 403.83,170.9 404.08,172.59 C405.26,180.59 388.39,191.59 357.61,202.77 C349.09,205.88 339.51,208.99 328.96,212.08 C297.45,221.28 257.24,230.16 210.57,237.17 C166.32,243.8 127.1,247.17 95.17,247.83 C91.05,247.92 87.07,247.97 83.17,247.97 C75.17,247.97 67.68,247.8 60.78,247.47 C56.66,247.28 52.73,247.01 49.03,246.67 C22.9,244.4 7.64,239.26 6.59,232.2 C5.33,223.83 23.95,212.2 57.7,200.34 C57.7,198.98 57.62,197.62 57.51,196.26 C22.97,208.26 0.75,221.18 2.51,232.82 C3.94,242.39 21.11,248.03 47.45,250.47 C51.136667,250.816667 54.993333,251.093333 59.02,251.3 C67.1,251.74 75.8,251.93 85.02,251.88 C88.88,251.88 92.81,251.8 96.85,251.72 C131.4,250.89 171.71,247.18 211.16,241.26 C252.6,235.03 294.24,226.26 328.51,216.26 C338.98,213.26 348.76,210.08 357.65,206.87 C389.65,195.36 409.83,183.06 408.15,171.94 L408.17,171.93 Z"/>
  </g>
</svg>
